<?xml version="1.0" encoding="UTF-8" standalone="no"?>
<svg
   height="24"
   width="24"
   version="1.1"
   id="svg4"
   sodipodi:docname="download.svg"
   inkscape:version="1.2 (dc2aedaf03, 2022-05-15)"
   xmlns:inkscape="http://www.inkscape.org/namespaces/inkscape"
   xmlns:sodipodi="http://sodipodi.sourceforge.net/DTD/sodipodi-0.dtd"
   xmlns="http://www.w3.org/2000/svg"
   xmlns:svg="http://www.w3.org/2000/svg">
  <defs
     id="defs8" />
  <sodipodi:namedview
     id="namedview6"
     pagecolor="#ffffff"
     bordercolor="#000000"
     borderopacity="0.25"
     inkscape:showpageshadow="2"
     inkscape:pageopacity="0.0"
     inkscape:pagecheckerboard="0"
     inkscape:deskcolor="#d1d1d1"
     showgrid="false"
     inkscape:zoom="31.958333"
     inkscape:cx="11.374185"
     inkscape:cy="12.031291"
     inkscape:window-width="1920"
     inkscape:window-height="1003"
     inkscape:window-x="0"
     inkscape:window-y="0"
     inkscape:window-maximized="1"
     inkscape:current-layer="svg4" />
  <path
     d="M12 15.575q-.2 0-.375-.063-.175-.062-.325-.212l-3.6-3.6q-.275-.275-.275-.7 0-.425.275-.7.275-.275.712-.288.438-.012.713.263L11 12.15V5q0-.425.288-.713Q11.575 4 12 4t.713.287Q13 4.575 13 5v7.15l1.875-1.875q.275-.275.713-.263.437.013.712.288.275.275.275.7 0 .425-.275.7l-3.6 3.6q-.15.15-.325.212-.175.063-.375.063ZM6 20q-.825 0-1.412-.587Q4 18.825 4 18v-2q0-.425.287-.713Q4.575 15 5 15t.713.287Q6 15.575 6 16v2h12v-2q0-.425.288-.713Q18.575 15 19 15t.712.287Q20 15.575 20 16v2q0 .825-.587 1.413Q18.825 20 18 20Z"
     id="path2"
     style="fill:#222222;fill-opacity:1" />
</svg>
