<?xml version="1.0" encoding="UTF-8" standalone="no"?>
<svg
   height="24"
   width="24"
   version="1.1"
   id="svg4"
   sodipodi:docname="upload.svg"
   inkscape:version="1.2 (dc2aedaf03, 2022-05-15)"
   xmlns:inkscape="http://www.inkscape.org/namespaces/inkscape"
   xmlns:sodipodi="http://sodipodi.sourceforge.net/DTD/sodipodi-0.dtd"
   xmlns="http://www.w3.org/2000/svg"
   xmlns:svg="http://www.w3.org/2000/svg">
  <defs
     id="defs8" />
  <sodipodi:namedview
     id="namedview6"
     pagecolor="#ffffff"
     bordercolor="#000000"
     borderopacity="0.25"
     inkscape:showpageshadow="2"
     inkscape:pageopacity="0.0"
     inkscape:pagecheckerboard="0"
     inkscape:deskcolor="#d1d1d1"
     showgrid="false"
     inkscape:zoom="31.958333"
     inkscape:cx="11.374185"
     inkscape:cy="12.031291"
     inkscape:window-width="1920"
     inkscape:window-height="1003"
     inkscape:window-x="0"
     inkscape:window-y="0"
     inkscape:window-maximized="1"
     inkscape:current-layer="svg4" />
  <path
     d="M12 16q-.425 0-.712-.288Q11 15.425 11 15V7.85L9.125 9.725q-.3.3-.7.3-.4 0-.725-.325-.3-.3-.287-.713.012-.412.287-.687l3.6-3.6q.15-.15.325-.213.175-.062.375-.062t.375.062q.175.063.325.213l3.6 3.6q.3.3.287.712-.012.413-.287.688-.3.3-.712.312-.413.013-.713-.287L13 7.85V15q0 .425-.287.712Q12.425 16 12 16Zm-6 4q-.825 0-1.412-.587Q4 18.825 4 18v-2q0-.425.287-.713Q4.575 15 5 15t.713.287Q6 15.575 6 16v2h12v-2q0-.425.288-.713Q18.575 15 19 15t.712.287Q20 15.575 20 16v2q0 .825-.587 1.413Q18.825 20 18 20Z"
     id="path2"
     style="fill:#222222;fill-opacity:1" />
</svg>
